<?xml version="1.0" encoding="UTF-8"?>
<svg id="_레이어_2" data-name="레이어_2" xmlns="http://www.w3.org/2000/svg" version="1.1" viewBox="0 0 2880 1800">
  <!-- Generator: Adobe Illustrator 29.4.0, SVG Export Plug-In . SVG Version: 2.1.0 Build 152)  -->
  <defs>
    <style>
      .st0 {
        fill: #11366d;
      }
    </style>
  </defs>
  <path class="st0" d="M352.95,140.45c-6.11,161.24-14.5,282.78-26.72,377.58,80.16,36.46,133.59,130.45,151.15,299.8h-116.8c.76-10.53.76-20.26.76-29.17,0-91.56-12.98-161.24-44.28-209.05-32.83,190.41-85.5,238.22-165.65,238.22h-61.83v-121.54c12.21,58.34,24.43,97.23,61.83,97.23,34.35,0,58.78-55.1,73.28-278.73h-.76l.76-.81c5.34-93.18,9.16-212.29,11.45-373.53h116.8ZM481.96,882.65c18.32-157.19,25.96-367.86,25.96-533.15,0-16.21,0-93.18-3.82-209.05h102.29c1.53,42.94,2.29,88.32,2.29,134.5,0,15.39.76,76.97-4.58,190.41,24.43-8.91,48.09-18.64,69.47-29.17.76-29.98.76-59.15.76-87.51,0-44.56-.76-116.68-3.82-208.24h102.29c.76,38.08,1.53,78.6,1.53,119.92s0,128.83-6.87,259.28c-6.87,130.45-19.85,258.47-38.17,363h-80.92c11.45-101.28,19.08-222.01,22.9-348.41h-70.99c-6.87,126.4-19.85,247.13-37.41,348.41h-80.92Z"/>
  <g>
    <path class="st0" d="M835.04,871.9l11.95-699.32,295.44,5.69c81.56,1.57,141.96,21.82,181.18,60.74,39.22,38.93,58.28,91.09,57.16,156.5-.93,54.51-15.75,99.29-44.45,134.34-28.7,35.05-74.87,57.42-138.49,67.1,59.64,11.42,97.28,27.54,112.95,48.36,15.66,20.83,26.85,47.03,33.56,78.59l38.99,158.56-121.44-2.34-44.4-160.59c-11.44-38.06-33.29-67.83-65.56-89.31-32.27-21.47-74.69-32.71-127.25-33.72l-77.94-1.5-4.77,278.96-106.94-2.06ZM948.2,510.35l160.41,3.09c52.56,1.01,93.08-9.27,121.55-30.86,28.47-21.58,43.04-51.61,43.7-90.09.64-37.19-11.98-67.9-37.86-92.14-25.88-24.23-66.31-36.88-121.29-37.94l-162.22-3.12-4.29,251.06Z"/>
    <path class="st0" d="M1337.59,620.81c1.4-82.08,25.78-147.04,73.14-194.89,47.35-47.84,111.21-70.99,191.57-69.44,83.98,1.62,148.19,28.68,192.62,81.17,44.43,52.5,65.99,117.22,64.67,194.17-1.33,77.6-24.95,142.25-70.85,193.97-45.92,51.72-111.16,76.76-195.75,75.13-78.55-1.51-141.13-26.13-187.76-73.86-46.63-47.72-69.18-116.48-67.64-206.26ZM1444.51,623.83c-1.05,61.56,13.1,108.83,42.45,141.79,29.35,32.96,65.17,49.85,107.47,50.66,42.89.83,79.73-15.14,110.51-47.91,30.77-32.76,46.68-78.97,47.7-138.61,1-58.35-13.18-104.18-42.53-137.46-29.35-33.28-65.77-50.34-109.27-51.18-42.3-.81-78.67,14.84-109.14,46.97-30.47,32.13-46.2,77.38-47.2,135.73Z"/>
    <path class="st0" d="M2233.66,736.21l105.13,2.02c-6.96,53.11-31.4,95.46-73.34,127.05-41.94,31.59-100.68,46.65-176.19,45.2-83.99-1.62-147.62-26.9-190.9-75.84-43.29-48.94-64.22-114.78-62.8-197.51,1.57-91.7,25.86-160.2,72.86-205.48,47.01-45.28,110.39-67.16,190.14-65.62,79.75,1.54,137.47,19,173.17,52.41,35.69,33.4,55.88,72.28,60.56,116.63l-106.94-2.06c-3.88-20.6-16.55-39.29-38.02-56.06-21.47-16.77-51.24-25.52-89.3-26.26-46.52-.9-83.81,14.74-111.86,46.92-28.05,32.18-42.63,80.97-43.75,146.38-.99,57.72,12.76,102.24,41.23,133.58s63.85,47.42,106.15,48.23c39.27.76,72.82-8.54,100.65-27.89,27.83-19.35,42.23-39.92,43.21-61.71Z"/>
    <path class="st0" d="M2449.68,647.03l231.01-255.36,127.78,2.46-234.81,265.87,238.69,249.97-141.38-2.72-221.78-231.36-3.88,227.01-106.94-2.06,11.95-699.32,106.94,2.06-7.58,443.45Z"/>
  </g>
  <path class="st0" d="M760.53,939.06c-6.11,161.24-14.5,282.78-26.72,377.58,80.16,36.46,133.59,130.45,151.15,299.79h-116.8c.76-10.53.76-20.26.76-29.17,0-91.56-12.98-161.24-44.28-209.05-32.83,190.41-85.5,238.22-165.65,238.22h-61.83v-121.54c12.21,58.34,24.43,97.23,61.83,97.23,34.35,0,58.78-55.1,73.28-278.73h-.76l.76-.81c5.34-93.18,9.16-212.29,11.45-373.53h116.8ZM889.54,1681.25c18.32-157.19,25.96-367.86,25.96-533.15,0-16.21,0-93.18-3.82-209.05h102.29c1.53,42.94,2.29,88.32,2.29,134.5,0,15.39.76,76.97-4.58,190.41,24.43-8.91,48.09-18.64,69.47-29.17.76-29.98.76-59.15.76-87.51,0-44.56-.76-116.68-3.82-208.24h102.29c.76,38.08,1.53,78.59,1.53,119.92s0,128.83-6.87,259.28-19.85,258.47-38.17,363h-80.92c11.45-101.28,19.08-222.01,22.9-348.41h-70.99c-6.87,126.4-19.85,247.13-37.41,348.41h-80.92Z"/>
  <g>
    <path class="st0" d="M1988.92,1631.63c1.15.68,1.92-1.49,2.05,0,1.02-.13.38-1.9,1.15-2.31,1.15.54,1.28-.95,2.04-1.63.26-.27.89.14,1.15,0,.13-.27.26-1.63.51-1.76.38-.27,1.15-.27,1.53-.54.26-.14,0-.54.51-.54,1.28-.14,2.3-1.76,4.22-.54.38.14,0,.54.64.54,1.02,0,.51,1.09,1.02,1.63.25.27,1.28-.13,1.02.54-.13.81-.26,2.71,0,2.44-.26.41-.89,1.63-1.53,2.17-.26.14-.89-.27-1.15,0,0,0,.13.54,0,.54-.13.14-.89-.14-1.02,0-.38.41-1.02,1.36-2.04,2.17-.26.14-1.02-.14-1.15,0-.13.27-.38,1.63-.51,1.76-.64.41-1.66-.14-2.04.54-1.02.54-1.02,2.03-1.66,2.85-.89-.27-1.02.41-1.02,1.08-1.92-1.08-1.79.41-3.2,1.09-.13,1.08.64,1.22.51,2.31,0,1.63,1.53,1.36,2.17,2.17,0,2.31,1.15,2.98,2.56,4.61.51.41.77.41,1.15,1.09.38.54,1.41,2.71,3.2,2.31-.9,2.58,1.02,3.39,1.02,5.02,0-.27-.51.41-.51.54-.38,1.22-.51,1.09-.51,2.85-3.2.95-3.32-.95-6.39-1.22-.51-1.22-1.41-2.31-2.17-3.93-.13-.27-.51.14-.51-.54,0-1.08-.64-1.36-1.53-2.17-.38-2.04-1.53-2.85-2.68-3.93l-1.53-1.76c-1.66.54-1.66,2.71-3.83,2.85.25,2.04-1.53,2.04-1.53,3.93-2.94.27-3.71,2.85-5.24,4.48-.51-.27-.89-.54-1.66-.54-1.79.41-.64-2.31-2.68-1.63.51-2.98-.64-4.21-.51-6.78,1.79.14.89-2.58,3.2-1.76,1.02-.95,1.41-2.58,2.68-3.39.89-.81,2.17-1.36,2.04-3.26-.38-.68-1.53-.95-2.04-1.22-.26,0,0-.54-.51-.54h-1.66c-.89-1.22-1.92-2.44-4.22-2.17-.77-2.44-3.83-2.44-5.24-3.93-.9-2.03-.77-5.43.51-6.78.77.14,1.79-.27,2.68,0,1.79.54,1.92,1.76,3.07,2.85.77.54,1.41.68,2.17,1.08.26.14,0,.54.51.54.64,0,1.02,0,1.02.54,1.66.54,2.3,2.17,4.35,2.31,1.41-1.22.51-2.98.51-4.48,0-.81.51-5.7,0-6.24-.77-.68.26-.54,0-1.76-.13-.14-.51-.68-.51-.54,0-.95.51-1.09.51-2.17,0-.95-.51-.95-.51-1.76,0-.95.51-1.08.51-2.17,0-.81-1.28-2.17,0-2.85,0-1.76-1.66-1.63-1.15-3.93l1.66-1.63c2.43.14,3.32,2.04,4.73,3.26.51,1.63.77,1.49,1.02,2.85,1.53,5.56.26,9.22,1.02,14.65.25,1.9,0,3.66-.38,6.24,2.43,0,2.94-2.17,4.22-3.39Z"/>
    <path class="st0" d="M2036.48,1662.29c-.9,0-.26-1.36-.64-1.9-.13-.27-1.02-.54-1.02-.68-.13-.27.13-1.08,0-1.36-.64-.54,0-.27,0-1.22-.13-1.9.26-4.07.13-7.05-.26-2.71-.51-4.34,0-8.41l.51-3.26c.77-3.39.13-6.92.38-10.18-2.3-.68-4.6-.14-7.54.54-.13,0-.13.68-.51.68-.77,0-2.94.95-3.83,0-.26-.27-.64.27-3.2.41-.51-.54-.89-.13-1.79-1.08,0-.14-1.02-.41-1.02-.54-.13-.68,0-2.03-.25-2.31-.64-.54.38-2.17.25-4.07.51-2.17,3.71-1.49,7.8-2.44,2.56-.54,5.11.27,7.54-.13-.13,0,.13.68.51.68-.13,0,.38-.68.64-.68,0-.14.89.13,1.02,0,.77-1.09,1.79.41,2.56-.68.38-.54,3.2,1.76,4.09,1.76.77,2.58.64,1.9,1.02,4.07.77,4.07-.26,11.12-1.02,14.79,0,.41-.13.68,0,1.22,0,.54.77,2.85,0,5.16,0,0-1.02,1.49-.64,2.04.77.68,0,.27,0,1.22.13.68.64,1.36.64,2.58s-.38,2.58-.51,3.93c-.13,2.44-.13,5.16-1.28,7.6-1.41,0-3.71.95-3.83-.68ZM2063.83,1663.79c-.26-.27-1.15-1.36-1.28-1.76,0-.27.26-1.08.26-1.36,0-.81.26-1.76,0-3.66-.13-.95-.13-1.76-.13-2.44-.26-1.22.26-2.71.26-3.93.13-.81-.26-1.9-.13-2.99.26-1.76.13-1.9-.26-4.61-.89-6.11-.13-12.89-.13-18.72.26-2.71-.25-6.24-.25-8.55,0,0,.51,0,.64-.68,0-.14-.38-.41-.13-.54.13-.81,0-1.49.26-2.71,0-.95.51-1.63.77-2.98,4.35-2.44,4.6,2.31,7.16,3.12-.64,2.85,0,4.75-.13,8.68,0,1.22-.26,1.36-.26,2.17-.13,3.12-.25,5.83-.64,9.22,0,.27.26.81.13,1.22,0,.27-.77,2.03-.51,2.44,1.02.81,0,.14,0,.95,0,.13,1.28,1.49.77,2.03h-.64c0,.81.89.81.77,1.63,0,.14-.64,0-.64.68.13,1.36.26,2.44.26,3.8,0,.68-.51.81-.51,1.49.13.68.64.95.64.81,0,1.36-.51,1.63-.51,2.98.13,1.76.77,2.04.77,3.12.13.54-.64,4.34-.9,5.7-.51,3.12.9,6.78-2.43,8.82-1.41-.27-2.68-2.58-3.2-3.93Z"/>
    <path class="st0" d="M2095.53,1593.65c.13.14,1.15-.14,1.28,0,.51.54.51.95,1.15,1.36,1.92.95,3.07,1.63,4.09,3.26.77,1.22.64,4.07,1.28,5.83.13.27.51,0,.51.68.13.41-.13,2.31-.51,3.26-.13.41-1.15,1.08-1.28,1.36s.13.81,0,1.36c-.13.81-.89,3.53-2.17,4.48-.13.14-1.02-.14-1.15,0s0,.54,0,.68c-.26,0-1.15-.27-1.28,0,0,0,.13.68,0,.68-1.02.41-3.32.81-4.47,1.36-.89.27-3.2.14-5.62.54-2.68.41-3.71,1.9-5.62,3.26-.38,4.34-1.79,3.26-1.28,8.55,1.92-.81,4.22-.14,5.62-1.22,1.28-.81,3.83-.68,6.39-1.36.26,0,3.58-1.49,4.99-1.36-.13,0,.38.68.51.81.51,0,2.3-.27,2.68,0,.26.27.9,1.9,2.43,2.58.26,2.44-.77,3.93-1.92,5.16.64,2.58-1.15,3.12-1.53,6.1-.26,1.49-.89,1.76-1.28,3.12,0,.41.13.81,0,1.36-.77,2.99-.38-2.17-.77,3.26,2.81,1.08,2.04.14,4.99-.14,1.79-.14.64.27,3.83.54,3.07,0,6.52-.81,8.18,1.09-1.02,1.08-1.02,1.63-.51,2.85-4.22,1.63-6.14,1.22-11.38,2.17-.38.14-.9.41-1.15.68-.9.14-1.15.14-2.17.14-.38.14-.64.54-.77.68-1.53.14-2.81-.41-4.47,0-.13,0-.77-.41-1.15-.27-1.53,1.36-6.01.81-8.95,1.22-.38,1.09-.64-.13-1.28-.13s-.77.41-1.53.41c-2.68-.14-7.92-.68-9.59-2.04-.13-.13.13-1.08,0-1.36-.13-.14-1.02.14-1.28-.27,0,0,.26-.54.13-.68-.13-.41-1.15.27-.89-1.22.77-2.17,1.92-2.31,3.58-2.85,1.66-.27,3.96.54,5.75.41,1.28-.41.89-.68,2.68-.95.77-.13,7.67-.54,8.95-1.49.77-9.09,3.45-3.8,3.83-11.94-3.32,0-7.03,1.22-9.46,2.04-1.53.27-3.58,1.49-7.29.14-.26,0-.38-1.22-.77-1.22-.26-.14-.9.14-1.15,0-.9-.95-1.79-3.39-2.56-5.29,0-.27.13-1.09,0-1.36-1.02-.81-.26-.81,0-3.26.26-2.44,0-2.44.64-5.29.13-.27.64,0,.64-.68,0-1.09.38-1.22.64-1.9.26-.95.13-1.76.64-2.71.25-.27.64.14.64-.54,0-.54.77-1.63,1.53-2.31.64-.27,3.58-.81,4.47-1.36.26,0,.77-.54.51-.54,4.22-.95,7.67.41,10.1-1.9.13-.14,1.28-.68,1.28-.68.13-.41-.13-.95,0-1.36.26-.41,1.79-.81,1.92-1.36.38-.81-.64-2.58.64-2.44-.38-1.49-1.79-1.76-3.07-2.71-.64-.27-1.92-.54-3.45-.14-.38.14-1.15-.68-1.28-.27-.38,0-.64.68-.89.81-.77,0-1.92-.14-2.94-.14-1.28.27-7.54,1.49-8.56-2.71-.38-1.36,1.53-2.99,3.07-4.34,2.3-1.76,4.99.14,7.41-.27,1.41-.27,7.16-.68,8.44-.14ZM2097.19,1678.71c-2.43-1.49-4.99.68-8.82,0-.51-.14-.89-.68-1.79-.68-3.58.14-7.29,1.63-10.74,0-.51-2.04-1.92-3.12-1.15-6.11,4.86-3.12,14.57-.41,21.22-1.36,2.43-.27,2.94-.68,4.73-.41.13,0,1.15-.27,1.28,0,.51.54,1.15.68,1.92,1.36,1.02.68.89-.13,1.28,2.04,0,.41.64.54.64,1.22,0-.27-.64.41-.64.68v.54c0,.68.64,1.36.64,1.36-.13.81-1.28,2.58-1.92,4.48-.38,1.49-.13,2.03-.51,4.07l-.77,2.58c-.38,1.63-1.15,4.48-4.73,3.93-3.07-3.8-.64-8.28-.64-13.7Z"/>
    <path class="st0" d="M2137.84,1634.35c.64,1.08,1.53,2.17,2.43,3.26,1.28,1.49,3.32,2.85,2.56,6.51-.13.54.13,1.49,0,1.9-.26.41-1.28,1.09-1.92,2.04-.25.41-.89,1.9-.64,3.93-.26.68-1.28.14-1.79.54-.25.27.13,1.22,0,1.36-.25.27-1.02-.14-1.28,0-.38.41-.51.95-1.15,1.36-1.02.54-1.92,2.04-3.07,3.26-.51.41-1.28.14-1.92.54-.13.27-.38,1.22-.51,1.36-.77.27-1.79-.14-2.56,0,.13,0-.25.54-.51.68-1.53.41-3.07-.54-4.35-2.04-.26-.27-.26-1.63-.64-1.9-.64-.68-.38-1.36-.64-2.58-.13-.95-.51-1.22-.51-2.04-.13-1.08.51-1.08.51-1.9,0-.54-.64-.95-.51-1.9,0-.95.26-2.71.51-3.93.13-.14.64-.14.64-.68,0-.27-.13-1.76,0-1.9,1.15-1.08.26-4.21,1.28-5.97.38-.54.38-.95.64-1.9l3.07-6.11c.38-.81.26-1.36.64-2.03.51-1.36,1.28-2.04,1.15-3.26-.51-1.08-2.04-1.63-3.07-.54-1.92-.68-1.28,1.63-2.43,1.9-3.45,0-4.99,2.04-9.2,1.36l-1.15-2.04c-.13-.14-1.28-1.22-1.28-1.22-.26-.81.51-.41.64-.68.13-.54-.64-.81-.64-.68.51-1.49,1.79-1.36,1.28-3.26q1.79-.54,3.58,0c1.79-.95,3.45-1.22,5.62-1.9-.13,0,.26-1.22.51-.68.13,0,0,.68,0,.68,2.3-.68,3.07-.81,5.62-1.36.13,0,1.02.14,1.15,0,.64-.81.26,0,.64,0,3.07,0,4.09-.27,6.14,1.9,1.02,1.09.77,1.36,1.28,3.26.13.81.77,1.76,0,3.93-.13.27-.64,0-.64.68-.13.81-1.15.95-1.28,1.9,0,1.08-.38.81-.64,1.36-1.28,1.36-2.43,4.34-2.43,6.1.38,1.49,3.45.27,4.86.68ZM2128.76,1604.77c-1.15-1.49-2.3-1.76-1.92-4.61.13-.95.51-1.09.64-1.9.13-.81-.51-.41-.64-.68,0,0,.51-1.76.64-3.26.13-.95.64-1.22.64-1.9,0-1.76-.89-1.36,0-3.93,0-.27.51,0,.64-.68,0,0,.64-3.53-1.28-2.58.13-1.08,1.66-.41,2.43-.68.38-.14,1.02-1.22,1.28-1.36,1.92-.68,2.56,1.63,4.22,2.04,0,.68.13,1.09.64,1.22.13,1.76-.13,3.39-.64,5.29-.26,1.09-1.02,2.58-1.15,3.93-.51,4.48.77,7.19-1.28,10.99-2.43.81-3.32-.68-4.22-1.9ZM2128.63,1648.05c-.26,1.63-1.53,3.66,0,5.16,1.15-1.22,2.81-1.9,3.71-3.26,3.07-.95,6.01-4.34,4.35-8.41-3.2-.54-4.47.81-6.77,1.22-.51,1.63-.89,3.39-1.28,5.29ZM2166.47,1614.4c0,.14-.64.14-.64.81l.38,2.58c.77.81,2.43-.27,3.07-.54,1.15-.41,1.92-.81,2.94-1.09.51,0,.64.54,1.28.54-.13,0,.26-.81.64-.81s2.68-.41,4.09-.54c-.13,1.08.64,1.08,1.53,1.08.13,1.22.26,2.58.51,3.93-.9,2.04-3.2.95-4.22,1.76-2.68,2.98-8.18,3.8-10.1,7.46-.26,6.24-1.02,15.06-.26,21.84,2.04,0,2.68-1.49,5.5-.54,2.3.95,3.58,2.85,4.99,4.61,0,2.17-.77,3.66-1.28,5.7,0,.27.13,1.22,0,1.36-.77.41-.51,1.76-1.28,3.53,0,.41-1.15.95-1.15,1.22-.13.41.26,1.49,0,1.9-.13.27-1.15-.27-1.28-.14-.13.14.13.54,0,.68-.25.41-.25.27-.64.54l-1.15,1.22c-.89.54-2.3.68-3.07,1.49-1.53,1.22-2.3,3.8-4.35,5.16-.64.41-1.66-.14-2.43.27-.51.27-.64.95-1.28,1.22-1.28.54-2.43,1.22-3.58,1.36.51,1.36-1.15,1.36-1.28,1.76-.64,1.76.25,4.61.64,6.51,2.17.81,3.71-.14,5.5-.41,1.02-.13,2.05,0,3.07-.27.26-.14,0-.68.64-.68.13.14.38.27.64.14,1.79-.54,6.26-.27,9.2-.54.13,2.17,1.53,3.26,1.15,5.97-1.28.54-2.43,1.22-4.86.68-.38,0-.89,1.63-1.28,1.76-.77,0-1.66-1.63-3.07-.54-.13.14-.38,1.22-.64,1.36-.51.14-3.2-1.36-2.43.81-2.56-.81-4.47.27-6.13.54-1.92.14-3.45-.14-5.5-.14-.77-1.9-2.3-3.39-3.07-5.02-.26-.68.13-1.36-.64-1.49-.64-1.49.64-1.63.64-3.12,0-.41-.51-.81-.64-1.36-.13-.68.13-1.36,0-2.04-.13-.95-.64-2.58-.64-3.26.38-2.71,2.3-4.21,3.07-6.65,1.92-.41,2.68-2.17,4.99-1.9.64-1.9,2.43-2.17,4.22-2.71,1.28-.27,1.79-1.36,2.56-2.17,1.92-2.17,5.11-4.07,6.14-8.28-1.15-2.58-2.04.27-2.56.41-.77.14-.77-1.22-2.43-.41-.25,1.49-.89-.95-1.79.41.13,1.22-1.79-.41-1.92-.95-1.41,1.76-3.96,1.9-6.65,2.31-2.3.27-4.99,1.36-7.41-.41-.51-2.71-1.28-3.39-.64-5.97,2.04-1.76,6.39-.54,8.05-2.71,2.56,1.36,3.96-1.36,6.9-1.63-.64-2.04,1.79-4.07.77-5.97-.26-2.99-1.02-5.7-1.15-8.41,0-1.49.51-2.99.64-4.61.13-2.98-.64-6.1-.51-8.55,0-.14.64-.14.51-.68-.13-1.63.26-2.85.64-4.07-2.3-7.05,1.79-13.02-.13-21.57.77-.54,1.15-1.36,1.41-2.31,3.45-.68,4.6,1.63,6.65,2.98,0,5.7-.26,10.58-.9,16.55Z"/>
    <path class="st0" d="M2232.17,1593.65c.13.14,1.15-.14,1.28,0,.51.54.51.95,1.15,1.36,1.92.95,3.07,1.63,4.09,3.26.77,1.22.64,4.07,1.28,5.83.13.27.51,0,.51.68.13.41-.13,2.31-.51,3.26-.13.41-1.15,1.08-1.28,1.36s.13.81,0,1.36c-.13.81-.89,3.53-2.17,4.48-.13.14-1.02-.14-1.15,0s0,.54,0,.68c-.26,0-1.15-.27-1.28,0,0,0,.13.68,0,.68-1.02.41-3.32.81-4.47,1.36-.89.27-3.2.14-5.62.54-2.68.41-3.71,1.9-5.62,3.26-.38,4.34-1.79,3.26-1.28,8.55,1.92-.81,4.22-.14,5.62-1.22,1.28-.81,3.83-.68,6.39-1.36.26,0,3.58-1.49,4.99-1.36-.13,0,.38.68.51.81.51,0,2.3-.27,2.68,0,.26.27.89,1.9,2.43,2.58.26,2.44-.77,3.93-1.92,5.16.64,2.58-1.15,3.12-1.53,6.1-.26,1.49-.89,1.76-1.28,3.12,0,.41.13.81,0,1.36-.77,2.99-.38-2.17-.77,3.26,2.81,1.08,2.04.14,4.99-.14,1.79-.14.64.27,3.83.54,3.07,0,6.52-.81,8.18,1.09-1.02,1.08-1.02,1.63-.51,2.85-4.22,1.63-6.14,1.22-11.38,2.17-.38.14-.9.41-1.15.68-.89.14-1.15.14-2.17.14-.38.14-.64.54-.77.68-1.53.14-2.81-.41-4.47,0-.13,0-.77-.41-1.15-.27-1.53,1.36-6.01.81-8.95,1.22-.38,1.09-.64-.13-1.28-.13s-.77.41-1.53.41c-2.68-.14-7.92-.68-9.59-2.04-.13-.13.13-1.08,0-1.36-.13-.14-1.02.14-1.28-.27,0,0,.26-.54.13-.68-.13-.41-1.15.27-.89-1.22.77-2.17,1.92-2.31,3.58-2.85,1.66-.27,3.96.54,5.75.41,1.28-.41.89-.68,2.68-.95.77-.13,7.67-.54,8.95-1.49.77-9.09,3.45-3.8,3.83-11.94-3.32,0-7.03,1.22-9.46,2.04-1.53.27-3.58,1.49-7.29.14-.26,0-.38-1.22-.77-1.22-.26-.14-.9.14-1.15,0-.9-.95-1.79-3.39-2.56-5.29,0-.27.13-1.09,0-1.36-1.02-.81-.26-.81,0-3.26.26-2.44,0-2.44.64-5.29.13-.27.64,0,.64-.68,0-1.09.38-1.22.64-1.9.26-.95.13-1.76.64-2.71.25-.27.64.14.64-.54,0-.54.77-1.63,1.53-2.31.64-.27,3.58-.81,4.47-1.36.26,0,.77-.54.51-.54,4.22-.95,7.67.41,10.1-1.9.13-.14,1.28-.68,1.28-.68.13-.41-.13-.95,0-1.36.26-.41,1.79-.81,1.92-1.36.38-.81-.64-2.58.64-2.44-.38-1.49-1.79-1.76-3.07-2.71-.64-.27-1.92-.54-3.45-.14-.38.14-1.15-.68-1.28-.27-.38,0-.64.68-.89.81-.77,0-1.92-.14-2.94-.14-1.28.27-7.54,1.49-8.56-2.71-.38-1.36,1.53-2.99,3.07-4.34,2.3-1.76,4.99.14,7.41-.27,1.41-.27,7.16-.68,8.44-.14ZM2233.83,1678.71c-2.43-1.49-4.99.68-8.82,0-.51-.14-.89-.68-1.79-.68-3.58.14-7.29,1.63-10.74,0-.51-2.04-1.92-3.12-1.15-6.11,4.86-3.12,14.57-.41,21.22-1.36,2.43-.27,2.94-.68,4.73-.41.13,0,1.15-.27,1.28,0,.51.54,1.15.68,1.92,1.36,1.02.68.89-.13,1.28,2.04,0,.41.64.54.64,1.22,0-.27-.64.41-.64.68v.54c0,.68.64,1.36.64,1.36-.13.81-1.28,2.58-1.92,4.48-.38,1.49-.13,2.03-.51,4.07l-.77,2.58c-.38,1.63-1.15,4.48-4.73,3.93-3.07-3.8-.64-8.28-.64-13.7Z"/>
  </g>
  <g>
    <path class="st0" d="M2473.94,979.43c1.15.68,1.92-1.49,2.05,0,1.02-.13.38-1.9,1.15-2.31,1.15.54,1.28-.95,2.04-1.63.26-.27.89.14,1.15,0,.13-.27.26-1.63.51-1.76.38-.27,1.15-.27,1.53-.54.26-.14,0-.54.51-.54,1.28-.14,2.3-1.76,4.22-.54.38.14,0,.54.64.54,1.02,0,.51,1.09,1.02,1.63.25.27,1.28-.14,1.02.54-.13.81-.26,2.71,0,2.44-.26.41-.89,1.63-1.53,2.17-.26.14-.89-.27-1.15,0,0,0,.13.54,0,.54-.13.14-.89-.14-1.02,0-.38.41-1.02,1.36-2.04,2.17-.26.14-1.02-.14-1.15,0-.13.27-.38,1.63-.51,1.76-.64.41-1.66-.14-2.04.54-1.02.54-1.02,2.03-1.66,2.85-.89-.27-1.02.41-1.02,1.08-1.92-1.08-1.79.41-3.2,1.09-.13,1.08.64,1.22.51,2.31,0,1.63,1.53,1.36,2.17,2.17,0,2.31,1.15,2.98,2.56,4.61.51.41.77.41,1.15,1.09.38.54,1.41,2.71,3.2,2.31-.9,2.58,1.02,3.39,1.02,5.02,0-.27-.51.41-.51.54-.38,1.22-.51,1.09-.51,2.85-3.2.95-3.32-.95-6.39-1.22-.51-1.22-1.41-2.31-2.17-3.93-.13-.27-.51.14-.51-.54,0-1.08-.64-1.36-1.53-2.17-.38-2.04-1.53-2.85-2.68-3.93l-1.53-1.76c-1.66.54-1.66,2.71-3.83,2.85.25,2.04-1.53,2.04-1.53,3.93-2.94.27-3.71,2.85-5.24,4.48-.51-.27-.89-.54-1.66-.54-1.79.41-.64-2.31-2.68-1.63.51-2.98-.64-4.21-.51-6.78,1.79.14.89-2.58,3.2-1.76,1.02-.95,1.41-2.58,2.68-3.39.89-.81,2.17-1.36,2.04-3.26-.38-.68-1.53-.95-2.04-1.22-.26,0,0-.54-.51-.54h-1.66c-.89-1.22-1.92-2.44-4.22-2.17-.77-2.44-3.83-2.44-5.24-3.93-.9-2.04-.77-5.43.51-6.78.77.14,1.79-.27,2.68,0,1.79.54,1.92,1.76,3.07,2.85.77.54,1.41.68,2.17,1.08.26.14,0,.54.51.54.64,0,1.02,0,1.02.54,1.66.54,2.3,2.17,4.35,2.31,1.41-1.22.51-2.98.51-4.48,0-.81.51-5.7,0-6.24-.77-.68.26-.54,0-1.76-.13-.14-.51-.68-.51-.54,0-.95.51-1.09.51-2.17,0-.95-.51-.95-.51-1.76,0-.95.51-1.08.51-2.17,0-.81-1.28-2.17,0-2.85,0-1.76-1.66-1.63-1.15-3.93l1.66-1.63c2.43.14,3.32,2.04,4.73,3.26.51,1.63.77,1.49,1.02,2.85,1.53,5.56.26,9.22,1.02,14.65.25,1.9,0,3.66-.38,6.24,2.43,0,2.94-2.17,4.22-3.39Z"/>
    <path class="st0" d="M2539.6,941.44c.13.14,1.15-.14,1.28,0,.51.54.51.95,1.15,1.36,1.92.95,3.07,1.63,4.09,3.26.77,1.22.64,4.07,1.28,5.83.13.27.51,0,.51.68.13.41-.13,2.31-.51,3.26-.13.41-1.15,1.08-1.28,1.36s.13.81,0,1.36c-.13.81-.89,3.53-2.17,4.48-.13.14-1.02-.14-1.15,0s0,.54,0,.68c-.26,0-1.15-.27-1.28,0,0,0,.13.68,0,.68-1.02.41-3.32.81-4.47,1.36-.89.27-3.2.14-5.62.54-2.68.41-3.71,1.9-5.62,3.26-.38,4.34-1.79,3.26-1.28,8.55,1.92-.81,4.22-.14,5.62-1.22,1.28-.81,3.83-.68,6.39-1.36.26,0,3.58-1.49,4.99-1.36-.13,0,.38.68.51.81.51,0,2.3-.27,2.68,0,.26.27.9,1.9,2.43,2.58.26,2.44-.77,3.93-1.92,5.16.64,2.58-1.15,3.12-1.53,6.1-.26,1.49-.89,1.76-1.28,3.12,0,.41.13.81,0,1.36-.77,2.99-.38-2.17-.77,3.26,2.81,1.08,2.04.14,4.99-.14,1.79-.14.64.27,3.83.54,3.07,0,6.52-.81,8.18,1.09-1.02,1.08-1.02,1.63-.51,2.85-4.22,1.63-6.14,1.22-11.38,2.17-.38.14-.9.41-1.15.68-.9.14-1.15.14-2.17.14-.38.14-.64.54-.77.68-1.53.14-2.81-.41-4.47,0-.13,0-.77-.41-1.15-.27-1.53,1.36-6.01.81-8.95,1.22-.38,1.09-.64-.13-1.28-.13s-.77.41-1.53.41c-2.68-.14-7.92-.68-9.59-2.04-.13-.13.13-1.08,0-1.36-.13-.14-1.02.14-1.28-.27,0,0,.26-.54.13-.68-.13-.41-1.15.27-.89-1.22.77-2.17,1.92-2.31,3.58-2.85,1.66-.27,3.96.54,5.75.41,1.28-.41.89-.68,2.68-.95.77-.13,7.67-.54,8.95-1.49.77-9.09,3.45-3.8,3.83-11.94-3.32,0-7.03,1.22-9.46,2.04-1.53.27-3.58,1.49-7.29.14-.26,0-.38-1.22-.77-1.22-.26-.14-.9.14-1.15,0-.9-.95-1.79-3.39-2.56-5.29,0-.27.13-1.09,0-1.36-1.02-.81-.26-.81,0-3.26.26-2.44,0-2.44.64-5.29.13-.27.64,0,.64-.68,0-1.09.38-1.22.64-1.9.26-.95.13-1.76.64-2.71.25-.27.64.14.64-.54,0-.54.77-1.63,1.53-2.31.64-.27,3.58-.81,4.47-1.36.26,0,.77-.54.51-.54,4.22-.95,7.67.41,10.1-1.9.13-.14,1.28-.68,1.28-.68.13-.41-.13-.95,0-1.36.26-.41,1.79-.81,1.92-1.36.38-.81-.64-2.58.64-2.44-.38-1.49-1.79-1.76-3.07-2.71-.64-.27-1.92-.54-3.45-.14-.38.14-1.15-.68-1.28-.27-.38,0-.64.68-.89.81-.77,0-1.92-.14-2.94-.14-1.28.27-7.54,1.49-8.56-2.71-.38-1.36,1.53-2.99,3.07-4.34,2.3-1.76,4.99.14,7.41-.27,1.41-.27,7.16-.68,8.44-.14ZM2541.26,1026.5c-2.43-1.49-4.99.68-8.82,0-.51-.14-.89-.68-1.79-.68-3.58.14-7.29,1.63-10.74,0-.51-2.04-1.92-3.12-1.15-6.11,4.86-3.12,14.57-.41,21.22-1.36,2.43-.27,2.94-.68,4.73-.41.13,0,1.15-.27,1.28,0,.51.54,1.15.68,1.92,1.36,1.02.68.89-.13,1.28,2.04,0,.41.64.54.64,1.22,0-.27-.64.41-.64.68v.54c0,.68.64,1.36.64,1.36-.13.81-1.28,2.58-1.92,4.48-.38,1.49-.13,2.03-.51,4.07l-.77,2.58c-.38,1.63-1.15,4.48-4.73,3.93-3.07-3.8-.64-8.28-.64-13.7Z"/>
    <path class="st0" d="M2601.72,963.42c-.26.27-.51.81-1.15.54-.13,0-.64-.41-.64-.54-.64.27-1.79,1.08-3.32.54-.64-.14-1.15-.54-3.32,0-.25.14-.64.68-.51.68-1.28,0-1.53-1.08-3.32-.68-.38.14-.77.68-.64.68-.89,0-1.02-.68-1.66-.68-.77.14-1.79.95-2.81,1.22-2.04.68-3.96.95-6.14,1.76-.13.14-1.02-.14-1.15,0,0,.14.13.54,0,.68-.13,0-.89-.27-1.02,0-.89.95-2.04-.68-3.96.54-1.79-1.49-1.79-4.75-2.81-7.05,1.41-.14.89-2.31,1.66-2.98h5.11c2.81-.54,4.09-1.63,6.14-.68.89-.95,1.15-.81,3.32-1.08.13-.14,1.02,0,1.15,0,.77-1.09.77-.14,2.17,0-.13-.14.26-.95.64-.68.51.81.13,0,.51,0,1.79,0,3.58-.14,4.99,0,1.79.27,3.32,2.58,5.11.68,1.28,1.9,3.83,2.58,3.32,6.51-.13.54-1.28.14-1.66.54ZM2597.75,979.97c-.13.27-.51,0-.51.68v.54c-.38.95-1.02,1.9-1.15,2.99-.38,2.58.26,5.7,0,8.28-.13,1.08-.89,2.04-1.15,2.98-.13.54.38,2.71,0,2.99-1.02.81-1.15,4.61-1.66,6.51.77,1.08,2.43.68,3.32.54.51,0,1.15.14,1.66,0,.51,0,.64-.54,1.15-.54,1.02,0,1.92.54,2.81.54,1.66.14,2.94-.81,4.47-.54,0,0,.26.54.51.54,1.02.27,1.28.41,2.3,1.22.13,2.44-.77.95,0,2.85-1.79,0-2.17,1.63-4.47,1.22-.51,1.22-3.2.14-3.32,1.76-.77-.68-1.92-.68-2.81-.68-.38.14-2.05.41-2.3.68-.64.81-.26-.27-1.02,0-.13,0-.25.41-.64.54-3.32.68-6.39,1.22-9.97,1.76-1.02.14-1.92-.14-2.81,0-.64.14-1.15.68-2.3.68-1.53-.27-3.32-.68-4.47-1.22-.26-.14.13-.54-.51-.68-1.02,0-.89-1.63-2.81-1.09v-4.61c.25-.54,1.15-.27,1.66-.54.38-.27.89-1.08,1.15-1.22s.77,0,1.15,0c.51-.14.26-.41.51-.68l1.66-.54c.38-.14.9-1.09,1.15-1.22.26-.13.77.14,1.15,0,.64-.13,1.92-1.63,3.83-1.08.38-.95.89-1.49,1.66-1.9.25-.81.38-1.63.64-2.85,0-.41.64-.68.51-1.22,0-.14-.77,0-.51-.54,0-.41,1.02-.41,1.02-.68.13-.27,0-.81,0-1.22.51-1.49.38-2.04.64-4.07,0-.27-.13-1.08,0-1.22.89-.81-.13-.81,0-1.76,0-.54.51-.54.51-1.22,0,.14-.51-.27-.51-.54,0-.14.77-1.08.51-1.22-1.02-.81-.26-.68.64-1.76.13-2.31.13-5.02.51-7.19,0,0,.51,0,.51-.54,0-.41-.13-1.36,0-1.76.13-.14,1.02.14,1.15,0,.51-.68.89-1.9,1.66-2.98,2.05-.54,3.45,1.08,4.47,2.44.13.13-.13.95,0,1.08.51.54,1.79.68,1.66,2.44-1.41.81-1.02,2.44-1.66,4.07ZM2579.86,972.92c.13.14,1.15,1.09,1.15,1.22s-.64,1.49-.51,2.31c0,.27.38.95.51,1.22,0,.14.89,1.49.51,1.76h-.51c-.13.81.51,1.09.51,1.22,0,1.08-.38,1.22-.51,2.31-.13.81.13,1.63,0,2.44-.38,2.44-.64,7.05,0,10.72.13.95.89,1.49,1.15,2.31.13.81-.89.68,0,2.31-1.53,1.49-3.83.14-5.62,0-.26-1.63-1.28-2.98-1.66-4.61-.26-1.49-.13-3.93-.64-5.43,0-.14.25-1.08,0-1.22-.9-.81,0-.41,0-2.31,0-1.08-.64-1.22-.51-2.31,0,0,.51-.54.51-.68.25-.68-.13-1.63,0-2.31.13-.27.64-.81.64-.68,0-.95-.51-1.22-.64-2.31,0-1.09.64-1.22.64-2.44,0-.54-.89-1.22-.64-2.31.13-.13.64-.13.64-.68,0-.95,1.53-1.36,1.66-2.85,1.53.27,2.3.81,3.32,2.31ZM2629.07,965.86c1.53-.68,1.66.54,2.17,1.09.13.14,1.15.54,1.15.68.38.81.26,1.49.64,2.31.13.27.51,0,.51.68,0,.95.89.41,1.15,2.31.13,1.36-.77,3.26-1.15,5.29-.26.95-.38,2.04-.51,2.98-.38,1.49-.89,2.17-.64,4.21.13.41.51,1.36.64,1.22-.25,1.49-1.66,1.76-1.15,4.07.13.68.38,2.17,0,4.75,0,.14.13,1.09,0,1.22-.51.41,0,1.36,0,3.53,0,.68-.51.41-.64.54,0,.54.64.68.64.68-.13.41-.64.54-.64,1.22.13.41.51.54.64,1.08,0,.41-.13.95,0,1.22.13.41,1.02,1.08,1.15,1.22,0,.27-.64,1.08-.64,1.76,0,1.63,1.15,2.71-.51,4.75-2.94-.41-3.45-1.08-5.62-1.22-.26-1.76-1.41-2.04-1.66-4.07-.13-1.63-.13-2.58-.51-4.75-.13-.14-.64-.14-.64-.68,0-.81.13-1.63-.51-1.76,1.92-1.49.64-4.48.51-7.05-1.41-.14-2.81-.14-3.83.54-.89.54-3.2.95-5.11,1.76-.26.14,0,.54-.51.68-.26,0-.77.41-1.15.54-.64.27-1.41.27-2.17.54-.51.27-1.53.27-2.3.68-.64.27-.38,1.22-1.66,1.08-.77,0-1.15-.27-1.66-.54-.51-.27-.77-.81-1.15-1.22-.89-.68-1.79-.14-2.17-1.76-.38-1.22.26-2.31,0-4.07,1.53-1.09,2.43-2.99,5.5-2.44l2.81-1.22c1.92-.54,3.32-.81,5.11-1.76,0,0,2.04-.41,2.17-.54.64-.81,4.09-1.49,6.77-1.22,1.02-1.63.26-3.8.51-5.29,0-.14.51-.14.51-.68.13-.41.64-.54.64-1.08s-.77-.95-.64-1.9c.13,0,.64,0,.64-.54,0-.14-.13-.41,0-.54.13-.27.38-1.9,1.02-2.44.38-1.22-.64-3.8.64-4.07-.13-.95.51-1.08.51-1.76h1.15ZM2648.5,973.32c0,.14-.51,0-.51,0-.26,1.36-.13,2.04-.26,3.12-.26,1.63.13,8.41-.13,10.17,0,.27.51,3.12,0,3.53-.38.27-.77.95-.51,1.76,0,.41.64.54.51,1.22-.13,1.76-1.53,1.9-1.15,4.75,0-.14,1.02.27.64.54-.38.27-.77,1.08-.64,2.98.13.41-.26,2.04,0,2.31.13.14,1.79.68,1.15,2.44-2.43-.14-3.32,1.63-6.14,1.22-.13-1.36-1.41-1.63-1.66-2.98-1.02-4.75,0-14.11.51-18.99.38-3.39-1.41-10.45.26-12.75.13-1.22-1.28-3.8,0-4.07-.38-1.36.89-1.09.89-1.9,3.32-.68,4.86,1.49,6.65,3.12-.51.68.9,2.85.38,3.53Z"/>
    <path class="st0" d="M2672.53,958.67c0,2.04,1.79,4.07,3.2,5.43.26.14,1.02-.27,1.28,0,.13.14-.26,1.09,0,1.22.51.41,1.41.41,1.92.68.64.41.77.95,1.28,1.36,1.02.81,1.92,1.63,2.68,2.44.89.81,1.66,2.04,2.3,2.85.77,1.09,1.66,1.76,2.56,2.71.89,2.71,0,5.29-4.09,4.88-2.17,0-2.17-2.04-3.71-2.98-.77-.14-1.28-.81-1.79-1.36-1.02-.81-.77-1.63-2.68-2.44-.38-.14-1.41-.27-1.92-.54-.51-.41-.77-1.63-1.28-2.04-.38-.41-1.28-.27-1.79-.68-.25-.14-.51-1.22-.64-1.36-.77-.41-1.66-.41-2.56-1.36-1.15.68-1.28,2.31-1.92,3.39-.26.54-.89.68-1.28,1.36-.13.14.26,1.08,0,1.22-.38.54-1.53.95-1.79,1.36-.25.27.13,1.22,0,1.36-.13.14-.64-.14-.64,0-.51.81.51,3.26-1.15,2.71.13.81-.13,1.22-.64,1.36,0,1.08-.77,2.17-.77,3.26-2.3.41-2.17,3.12-2.94,4.75-.13.41-1.02.27-1.28.68-.13.14.26,1.08,0,1.36-.13.14-.77,1.49-1.79,1.9-2.68.68-2.56-1.76-3.83-2.58.64-.54-.77-3.39,0-4.07,0,0,.64.14.64,0,.51-2.44.26-3.8,1.53-5.29.25-.27.38-.27.64-.68.13-.41,0-.81.64-.68.25-.81,1.02-2.04,1.41-2.71,0-.14.51-1.22.51-1.36l.64-2.58c.13-.41,1.15-.41,1.28-.68.26-.41-.13-1.08,0-1.36.64-1.22,2.81-2.71,2.56-5.29,1.15-.68,1.79-1.63,3.2-2.04-.13-1.9-.13-3.66,1.79-3.39-.51-2.58,1.41-3.66,2.56-5.29.38-.68.25-1.49.64-2.04s1.28-.41,1.28-1.36c3.07.27,3.45,3.53,5.24,5.16.77,2.17-2.05.54-1.28,2.71ZM2691.96,1005.34c.26-.14-.26-1.09-.51-.81-.13.14-1.02,1.76-1.02,1.76-.77.27-2.94-.27-3.96.14-.77.14-3.71.68-4.6.68-1.28,0-4.35-.41-5.5-.95-.77-.27-.38.95-.77,1.08-.26.27-1.02-.41-1.28-.27-.13.14-.13.68-.13.68-.77.27-4.35-1.63-3.96.68-2.17-.41-4.22,0-6.52.14-.13-.14-.13.54-.64.54-.89-.14-1.66-.68-2.56-.54-.13,0-.13.68-.64.54-1.02-.27-1.15.27-2.04.27-1.02-.14-2.04-.68-3.07-.54-.64-.14-1.02.54-1.92.27,0,0-.13-.81-.51-.95-1.41-.41-1.79-.95-2.94-1.9-.13-2.85.13-6.38,2.05-7.73,1.66.81,4.98.13,5.24,1.76,2.04-.27,3.96-.41,6.14-.81.13-.14,1.15.27,1.28.27.51-.41.38-.27,1.28-.41.26,0,.89-.41.64-.68,1.15.41.89,1.36,2.56.68.64-.27,1.02-.27,2.04-.41.64.14,6.77-.54,8.31-.68.89.14,1.66,0,3.07.27-.13,0,.25.68.64.68,0,0,1.66-.54,2.04-.41.51,0,1.92.27,2.3.27,2.05,0,3.71-.41,5.75,1.63.38.41.9,1.9,1.53,2.44,0,1.76-1.28,1.9-2.3,2.31Z"/>
    <path class="st0" d="M2719.95,966c-.89.27-2.43.41-5.11.54-.51,0-.38.54-.51.68-.51,0-.51-.68-.51-.68-.9.14-1.15.68-1.79.68-.89-.13-1.15-.68-2.17-.68-1.53,0-3.32,1.36-5.62,0-1.15,1.36.13,1.22.51,3.12.51,1.63,0,3.39.9,4.75-.26,2.17-1.79,3.39-1.79,5.97.13.41,1.79,1.22,2.3,1.22.38,0,1.41-.41,2.81-.68.89-.14.89-.54,1.53-.54,1.02,0,2.43.68,3.58.54,1.66,0,2.81-.81,5.37-.54.77,0,1.66-.27,1.79.54,1.15-.54,1.53-.95,3.32-.95.13.81,1.41.54,2.17.54.13.95,0,1.76.77,1.9.13,1.22-.38,1.76-1.66,1.76.38,1.22-.25,1.49-.38,2.31-1.92.41-3.32-1.22-4.73.95-3.07-.14-5.5.14-6.77,1.76-2.05-.68-3.71,1.76-4.99,0-2.17,1.63-4.47,2.98-7.41,3.66-1.15,2.85-2.17,5.97-1.53,10.58.51.14.64.68,1.15.68.13,0,1.92-1.49,2.81-.68.64.81.26.14,1.53-.54.64-.27,1.02-.41,1.66-.54-.25.14.38.54.51.54-.13,0,.51-.54.64-.54.51-.27,1.02-.54,1.02-1.22,1.15,1.36,2.17-.81,3.45.54,1.41-.14,1.28-.54,2.68-1.22.26,0,.77.14,1.02,0,0,.14,1.53-.54,1.53-.54.77-.81.89-.27,1.79,0,2.04,0,1.53-2.58,4.35-1.76.26.68,1.15.41,1.15,1.22.13,2.04,1.28,2.85,1.53,4.75-1.02.14-1.28.95-1.02,2.31-1.92-.41-2.17,1.08-3.32,0-.51.95-1.53,1.49-1.92,2.44-1.02-.54-4.86-.27-5.5,1.09-1.79-.14-4.22-.41-5.75.68,0,.14-.9,1.22-.9,1.22-.77.14-.77-.95-2.17,0-.26.14-1.02,1.08-1.02,1.08-.38.14-.77-.54-1.28-.54-.38,0-.38.54-.89.54-1.92.14-4.09.14-5.24-.54-.51-.41-1.28-.68-2.17-.54-.38-1.76-1.41-3.53-2.17-5.43-.64-1.76-.64-3.8-.51-7.05,0-2.85.13-5.29.38-8.28.13-.14.64-.14.77-.68-.13-.68-.51-1.63-.38-2.31.13-.27,1.02-1.08,1.15-1.22.38-1.9-.38-3.26.13-5.29,0-.14.51-.27.51-.68.13-.81.13-1.22.51-1.76.13-.27.13-1.63.38-1.76.51-.54.38-2.58.89-4.21-.13-.14.51,0,.38-.54,0-.27.26-.81.51-1.22.51-1.36,1.66-2.04,2.68-3.66-1.02,0-1.28.54-2.3.54-.64,0-.26-.54-.51-.54,0,0-3.2.81-5.11.54,0,0,0-.54-.51-.54h-1.66c-.25-2.17-2.3-3.66-1.92-5.97.13-1.49,1.15-1.76,1.79-3.53,1.79,0,2.94.41,4.47,0,.25-.14,2.56,1.49,3.32.54.64-.81,1.02.54,2.3-1.08,1.02-.54,1.28,1.08,1.66,1.08.51.27,1.79-.54,2.81-.54,0,0,.64.68,1.02.54.13,0,.13-.54.64-.54.77,0,1.53.27,2.81.54.64.27,1.53-.27,1.66.68.89-.14,6.01-2.04,6.01.54,2.43-.41,2.81.95,4.98.54-.13,1.76,1.28,1.9,1.02,3.66-.9.95-1.92,1.09-3.45,1.76ZM2744.87,960.16l2.81-.68c2.43-.41,3.83,3.93,4.22,6.78-1.02,2.85-.38,5.83-.64,8.95,0,.14.25,1.08.13,1.08,0,.14-.51,0-.51,0-.13.27.13,1.09,0,1.22-1.02,1.08.26.41.26,2.44-.13-.27-.51.41-.51.54-.13.54,0,.81,0,1.22l-.38,4.21c.13,1.22.77,2.17.89,3.53,0-.14-.64.27-.64.68,0,2.04.13,4.21-.13,7.05,0,1.36-.77,2.58-.25,4.75.13.54.64.68.64,1.22.13,1.36-1.41,1.63-.89,3.53.13.27.51.81.64.81,0,1.63-.64,2.44-.89,3.93-1.02.27-2.43,0-3.45-.81-.51-.54-.13-1.22-.51-1.76-.77-.68-1.02-.41-1.28-1.76-.38-.81-.13-1.49-.38-4.07,0,.14-.89-.27-.51-.68.9-.81.13-2.71.13-5.29.13-1.08.51-1.63.51-2.31-.13-1.49-1.15-2.31-.89-4.21.25-.81,1.02-.95,1.02-1.76.13-.54-.64-1.22-.64-2.98-.13-2.17.13-1.9-.26-4.21-.13-.68-.25-1.63-.13-2.31,0-2.85.25-5.56.64-8.28l.38-2.58c0-.95-.51-.81-.64-1.63-.13-.95.38-1.49.38-2.44.13-1.36-.26-2.31-.26-4.21h1.15Z"/>
    <path class="st0" d="M2769.67,997.06c-.38-.81-.89-1.9-1.02-.95-2.81-1.49-4.35,5.16-7.03,3.26-.89-.54-.64-2.04-1.02-2.98-.26-.81-.77-1.09-1.15-1.49-.13-.14.13-1.09,0-1.09-.64-.81-1.02-1.36-1.15-2.17-.13-.27.13-.95,0-1.22-.89-.81-1.92-3.39-2.17-5.83-.26-.54.26-1.9-.13-2.17-.13-.27-.64-.14-.64-.14-.13-.41.38-2.17,0-2.44-2.17-2.71-1.15-8.28-1.66-13.43-.13-1.63-1.02-2.85-1.28-4.34-.26-2.85-.26-5.97-.51-9.09-.13-2.71-1.15-5.43-.51-8.28,1.28-1.22,6.9-.68,6.65,2.58.51,1.22,2.05,1.49,2.43,2.98-.51,1.49-1.53,2.31-1.79,3.8,0,1.22.51,2.44.51,3.66,0,.41-.51.27-.38.95,0,.41.38.81.51,1.36.26,2.17.26,4.48,1.02,6.78.26,1.36,1.41-.27,2.3-.27.26.14.77-.14,1.15-.14,1.02-.41,2.05-.27,3.45-.68.51-.14,1.53-.14,2.68-.41.51,0,1.53,0,2.17-.14,1.15-.27,2.17-1.09,3.45-.95,2.05-6.65-.51-19.94,3.2-25.91,1.79.81,2.3-.27,3.32,0,1.15.68,1.53,1.22,2.43,2.44,1.02,1.63,1.28,2.85.38,5.43-.13,1.08-.38,2.03-1.02,2.71.38,1.36.26,3.12,0,4.75-.13,1.49-.26,3.26-.51,4.61-.26.95.25,1.9-1.02,1.36,1.79,4.07-.77,2.58.13,6.78,1.02.68,2.17-.81,2.94-1.08.38,0,.77.41,1.15.41,0,.14,1.66,0,1.66,0,.9-.68,3.71-.41,5.24-1.36,1.79.54,2.3-1.63,4.47-.27,2.68-1.22,4.6-1.76,8.69-1.08,1.15-4.61,1.15-8.68,1.15-13.97,0-.41-.64-1.9-.38-2.31.89-1.08-.64-.95.13-2.31.51-.81-.13-3.26.38-4.61,1.79,0,3.45.14,5.24.41.38.27.51.54.77,1.08,0,.27,0,1.09.26,1.22,1.41,1.08,2.3,2.31,1.79,5.16.13.27-.51,0-.38.54-.13.27.38,1.76.26,1.9-1.15.81,1.15,2.85,0,3.93-.13.14-1.15,0-1.15.14-.26.41.64,1.63.51,2.31,0,.14-.64-.14-.64.41-.13,2.17,1.15,5.56.64,8.95-.25,2.71-.25,5.16-.51,7.87.13-.27.64.41.64.68-.13.41-1.02.27-1.02.95-.13.41.26.81.13,1.22-.26,1.22-.64,2.31-1.02,3.53-.38,4.48.38,8.55-.77,12.48,4.73,2.31-2.68-.81,2.68,2.17.26.68,1.28.95,1.66,1.63.38.68.13,1.36.51,2.04.77,1.36,1.66,1.76,1.92,3.39.13,1.08-1.02,2.44-.26,3.66-1.02-.41-.77.81-1.15,1.36-.26.41-.89.68-1.15,1.08-.64.41-1.79.81-2.43,1.49-.51.41-.26,1.36-.64,1.63-.13.14-.9-.41-1.15-.27-.13.27.25.95-.13,1.22-1.92,1.49-5.37,2.98-8.05,4.48-.38.54-.77,1.49-1.28,1.49-.38.27-1.15,0-1.66.27-.89.41-1.41,1.08-2.3,1.63-.26,0-.51.95-.77.95-.77.27-1.28.14-2.17.54-1.41.54-3.32.95-4.73,2.17-.77.81-1.28,2.71-1.92,4.48,2.81,1.09,4.47.27,5.75-1.08,1.66,1.49,2.68-.54,3.96-.54,1.53,0,2.04-.27,3.32-.81.89-.27,2.3-.68,3.45-1.22,1.41-1.9,3.83.41,6.14,1.08.13,2.31-1.53,2.71-2.94,3.66-.64.54-1.15,1.08-1.92,1.49-.26,0-.89-.54-1.02-.41-.38.27-.38,1.49-.64,1.63-.25.14-1.02-.68-1.15-.41-.77.68-1.79,1.49-2.94,2.17-1.28.68-2.43,1.9-3.58,2.58-1.28.54-3.2.54-5.11.68-.51.14-1.02,1.09-1.66.81-1.28-.41-3.32-.14-4.99-1.49-1.15-.95-1.66-1.49-2.68-3.12-.25-.54-1.02-1.36-.89-1.63-.38-.95-.13-2.44-.38-3.53-.13-.41-.51-.14-.51-.81,0,.41-1.41-4.07-.38-4.88,1.15-.41.51-1.9,1.41-2.98.13-.14.51-.27.51-.41l1.92-2.58c.26-.27.64.27.77-.41,0-1.09,1.15,0,2.17-.41.9-.41,1.41-1.9,2.81-2.17.77-.14,1.15.14,1.79-.14.38,0,0-.54.64-.27.64.14.89-.95,1.79-.81.13,0,.9-.14,1.15-.14.13-.14.38-1.09.51-1.09.26,0,.89.41,1.15.41.38-.41.26-1.36.64-1.76.13,0,1.02.54,1.15.41.25-.41,1.02-.95,1.02-1.49.25-.81.77-.14,1.28,0,.25-.27,0-1.09.13-1.22.64-.41,1.53-.54,2.3-1.22,1.92-1.49,3.83-2.71,4.86-4.48-.77-.14-1.53-.68-2.3-.68-.26-.14-.89.54-1.15.68-1.41,0-2.56-.68-3.83-.54-.13.14-.26.41-.77.27-1.02.14-1.02.27-2.17.68-.64.27-1.15-.14-1.66.13-.51.14-.64.68-1.28.81-1.02.27-2.43-.14-3.32.14l-1.28.81c-.77.54-1.53.54-2.81,1.09-.89.27-2.3,2.04-4.47.95-.26,2.31-2.68,1.63-4.09,1.22-3.07-.95-5.62-4.21-4.6-7.87,1.15-.68,2.68-.95,4.09-1.36,1.66-.54,3.32-.95,4.73-2.04,1.15.27,1.92.41,2.81.14.64-.41,2.43-.41,3.83-.68.38-.14.89-.81,1.15-.81.38-.14.77.27,1.15.41.77-.14,10.1-1.22,11.63-1.09,0-3.39,1.28-2.31-.26-4.61,1.92-.95.38-4.07.51-5.97.13-1.22,1.15-1.36.64-3.26,0-.14-.38-.81-.38-.81,0-.81,1.02-.68,1.28-1.36,0-.54-.64-1.22-.51-2.03.13-1.76-.13-2.58-.38-4.88-5.37.27-3.45-.27-7.8,1.63-.38.27-7.29,1.63-7.67,1.9-.51.14-1.02-.14-1.66,0-.38.14-.89.95-1.28.95-1.92.54-3.45,1.22-5.62,1.49-.51,2.17,0,4.07-1.41,5.16-1.92,1.08-1.66,2.98-3.07,3.93-.51.41-1.79,1.22-1.79,2.04-.13.14.13.95,0,1.08,0,.14-.89.27-1.02.54-.26.27,0,.95-.13,1.22l-1.02.54c-.64,1.08-.51,2.03-1.28,2.85-.38.54-1.53,2.31-2.56,2.98.26.68.38,1.22-.13,0h.13ZM2772.74,971.15c-.64.41-.13.41-.64,1.09-.13.27-2.04.14-2.17.14-.64.13-1.02,1.36-1.66,1.49-.13-.14-.51-.27-.64-.27-.64-.14-.13.41-.51.41-1.02.68-2.56,1.08-3.2,1.9-.64.41-.38,2.17-.64,2.71,0,.14-.89.14-1.02.41-.26.27-.13,1.22-.77.95.51,2.44,1.79,4.88,2.3,6.51.38.81.26,1.76,1.28,1.9-.13-1.08,1.02-.81,1.53-1.49.64-.54.64-1.36,1.15-2.04,1.02-.95,2.81-1.76,2.81-4.07,2.56-1.9,4.73-3.66,4.35-8.95-.64-.27-.77-1.09-1.53-1.09,0,.68-.26.27-.64.41Z"/>
  </g>
  <path class="st0" d="M1654.15,1679.54c-3.79-30.73-10.83-52.71-21.09-65.91-10.28-13.21-27.86-20.34-52.73-21.43-2.17-2.15-3.25-4.85-3.25-8.09,0-3.77,1.62-6.74,4.87-8.9h77.88c11.89,0,17.85-5.38,17.85-16.17v-65.51c-13.53,9.17-28.39,19.55-44.62,31.14-16.22,11.6-31.23,22.52-45.02,32.75-13.79,10.25-24.21,18.34-31.23,24.26-5.41,4.85-8.11,9.17-8.11,12.94,0,2.7.81,5.66,2.43,8.9v1.62c0,2.71-1.9,5.4-5.68,8.09-4.33,3.24-7.85,3.24-10.55,0-3.25-4.31-8.39-12.66-15.41-25.07-7.04-12.4-14.34-25.07-21.9-38.01-12.45,6.47-27.72,14.43-45.84,23.86-18.13,9.44-36.65,19.28-55.57,29.52-18.94,10.25-36.24,19.68-51.92,28.31-15.69,8.62-27.32,15.37-34.88,20.22-5.41,3.24-9.06,5.79-10.95,7.68-1.9,1.88-2.57,4.71-2.03,8.49v1.62c0,3.77-1.9,6.74-5.68,8.9-2.17,1.07-4.06,1.62-5.68,1.62-2.71,0-4.87-1.35-6.49-4.04-2.17-3.78-5.82-10.25-10.95-19.41-5.15-9.17-10.55-19.14-16.23-29.92s-10.95-21.03-15.82-30.73c-4.87-9.71-8.66-17.25-11.36-22.65-1.09-2.69-1.09-4.85,0-6.47.53-1.07,2.16-2.15,4.87-3.24l17.85-2.43,94.92-12.94v-239.39h-41.37c-29.21.54-52.47,1.35-69.77,2.43l-8.11-31.54c19.47,2.16,45.43,3.51,77.88,4.04h41.37v-93.01h-52.73c-10.28,12.41-21.09,24.26-32.45,35.59-11.36,11.32-22.71,22.11-34.07,32.35-3.79,0-6.77-1.21-8.92-3.64-2.17-2.43-2.98-5.26-2.43-8.49,11.89-15.63,23.39-34.78,34.48-57.42,11.08-22.65,21.36-46.77,30.83-72.38,9.46-25.6,17.44-51.08,23.93-76.43,6.49-25.34,11.08-47.98,13.79-67.94.53-3.24.94-6.33,1.22-9.3.27-2.96.41-5.79.41-8.49,1.08-3.23,2.16-5.12,3.25-5.66,1.62-1.62,3.51-1.88,5.68-.81,8.65,1.62,19.74,4.32,33.26,8.09,13.51,3.78,27.04,7.68,40.56,11.73,13.51,4.04,24.87,7.96,34.07,11.73,5.95,2.16,7.83,6.75,5.68,13.75,0,.54-.54,1.9-1.62,4.04,30.83,3.78,56.79,12,77.88,24.67,21.09,12.67,34.34,30.06,39.75,52.17,1.08,2.16,1.62,4.45,1.62,6.88v6.87c0,11.32-2.98,20.9-8.92,28.71-5.96,7.82-12.71,13.89-20.28,18.2-7.58,4.32-15.41,6.47-23.53,6.47-12.98,0-21.09-6.19-24.34-18.6-4.87-18.87-12.58-38.68-23.12-59.44-10.55-20.75-26.1-37.33-46.65-49.74-15.15,28.04-31.11,54.87-47.86,80.47-16.77,25.62-34.07,49.74-51.92,72.38h108.71c7.57,0,13.25-2.69,17.04-8.09,6.49-8.09,13.25-17.25,20.28-27.5,3.25-3.77,6.49-5.66,9.74-5.66s5.95.81,8.11,2.43c8.11,5.94,17.57,13.75,28.39,23.45,10.81,9.71,18.66,17.53,23.53,23.45,2.15,2.16,3.25,4.85,3.25,8.09,0,5.4-2.43,8.09-7.3,8.09h-95.73v93.01h8.92c8.11,0,13.51-2.43,16.22-7.28l25.15-33.16c3.25-4.31,6.21-6.47,8.92-6.47,1.62,0,4.06,1.09,7.3,3.24,9.19,5.94,19.19,14.43,30.02,25.48,10.81,11.06,18.92,20.09,24.34,27.09,1.62,2.16,2.43,4.85,2.43,8.09,0,5.4-2.43,8.09-7.3,8.09h-116.01v166.6c5.94-16.71,11.89-36.12,17.85-58.23,5.94-22.1,10.27-42.86,12.98-62.27.53-2.69.94-5.66,1.22-8.9.27-3.24.41-5.93.41-8.09.53-2.69,1.34-4.57,2.43-5.66,1.62-.53,3.78-.53,6.49,0,7.57,2.16,17.04,5.54,28.39,10.11,11.36,4.59,22.44,9.17,33.26,13.75,10.81,4.59,19.47,8.49,25.96,11.73,2.7,1.62,4.06,4.59,4.06,8.9,0,2.16-.81,4.45-2.43,6.87-1.62,2.43-3.79,3.64-6.49,3.64-4.87,0-8.8,1.21-11.76,3.64-2.98,2.43-6.36,5.8-10.14,10.11-9.2,11.87-20.02,24.4-32.45,37.61-12.45,13.22-24.74,25.62-36.91,37.2-12.17,11.6-23.12,21.17-32.86,28.71v32.35c11.89-1.07,22.98-2.43,33.26-4.04,10.27-1.62,19.47-2.69,27.58-3.24l-8.92-19.41c-1.62-3.24-1.9-5.66-.81-7.28,2.16-2.15,4.59-3.23,7.3-3.23,2.15-1.07,4.87-1.88,8.11-2.43,3.25-.53,7.02-1.07,11.36-1.62,15.13-3.24,33.67-6.74,55.57-10.51,21.9-3.77,43.81-7.54,65.71-11.32,21.9-3.77,39.61-6.74,53.14-8.9v-211.08h-83.56c-28.67.54-51.65,1.62-68.96,3.23l-8.92-31.54c21.62,2.16,47.32,3.51,77.07,4.04h182.53v-96.24h-126.56c-28.13.54-50.84,1.35-68.15,2.43l-8.92-30.73c21.62,2.16,47.32,3.51,77.07,4.04h126.56v-93.01l-159.01.81c-28.13.54-50.84,1.35-68.15,2.43l-8.92-31.54c21.09,2.16,46.77,3.51,77.07,4.04h147.65c5.94,0,10-2.15,12.17-6.47,1.08-2.69,3.11-6.47,6.08-11.32,2.97-4.85,5.27-8.62,6.9-11.32,2.16-3.77,5.13-5.66,8.92-5.66,1.08,0,3.25.54,6.49,1.62,6.49,2.16,14.87,5.26,25.15,9.3,10.27,4.04,20.55,8.23,30.83,12.54,10.27,4.32,18.38,8.37,24.34,12.13,4.32,3.24,6.49,7.56,6.49,12.94,0,6.47-2.98,11.06-8.92,13.75-1.62.54-3.25,1.21-4.87,2.02-1.62.81-2.98,1.76-4.06,2.83-6.49,4.85-9.74,13.48-9.74,25.88v177.93c2.7-1.07,4.87-2.69,6.49-4.85,2.7-4.85,6.9-11.85,12.57-21.03,5.68-9.16,9.86-15.63,12.57-19.41,3.25-4.31,6.49-6.47,9.74-6.47s5.95,1.09,8.11,3.24c8.65,7.01,18.66,16.31,30.02,27.9,11.36,11.6,19.47,20.9,24.34,27.9,2.16,4.32,3.25,7.28,3.25,8.9,0,6.47-2.98,9.71-8.92,9.71h-200.38c3.25,24.81,8.92,47.86,17.04,69.15,8.11,21.31,17.85,40.58,29.21,57.83,6.49-11.85,12.84-25.34,19.06-40.44,6.21-15.09,11.22-28.57,15.01-40.44,2.7-5.93,4.32-11.04,4.87-15.37,1.08-2.69,2.15-4.31,3.25-4.85,2.15-1.62,4.87-1.62,8.11,0,4.87,2.16,11.76,5.66,20.69,10.51s18.52,10.11,28.8,15.77c10.27,5.66,19.47,10.92,27.58,15.77s13.79,8.63,17.04,11.32c3.78,2.16,4.32,5.66,1.62,10.51-2.17,5.4-5.41,7.28-9.74,5.66-3.25-1.62-6.22-2.43-8.92-2.43s-7.58,2.16-14.6,6.47c-13.53,8.63-29.48,17.67-47.86,27.09-18.39,9.44-34.62,17.12-48.68,23.05,23.79,30.2,50.56,55,80.31,74.41,29.74,19.41,57.05,35.32,81.94,47.72-11.36,3.78-23.53,10.92-36.51,21.43-12.98,10.51-24.88,21.98-35.7,34.37-10.83,12.41-18.66,23.73-23.53,33.97-18.39-17.25-36.65-40.3-54.76-69.15-18.13-28.84-33.95-62.68-47.46-101.5-13.53-38.82-22.99-81.95-28.39-129.4v93.01c0,19.41.27,39.5.81,60.25.53,20.76.94,40.44,1.22,59.04.27,18.6.67,34.25,1.22,46.91.53,12.67.81,20.62.81,23.86,0,21.57-9.2,39.35-27.58,53.38-18.39,14.01-45.98,23.18-82.75,27.5ZM1280.16,1516.17c-8.11,0-15.15-2.55-21.09-7.68-5.96-5.12-8.66-12.54-8.11-22.24.53-7.54.94-14.82,1.22-21.84.27-7,.41-13.75.41-20.22,0-20.48-1.62-38.68-4.87-54.59-3.25-15.9-9.2-31.14-17.85-45.7,1.08-7.54,5.4-10.78,12.98-9.71,25.42,14.56,46.24,32.22,62.47,52.97,16.23,20.76,24.34,43.81,24.34,69.15,0,19.95-5.41,34.92-16.23,44.89-10.83,9.98-21.9,14.96-33.26,14.96ZM1605.48,1445.81c-9.74,0-17.99-2.83-24.74-8.49-6.77-5.66-9.33-14.15-7.71-25.48,1.08-4.31,1.62-9.02,1.62-14.15v-14.96c0-17.79-1.9-35.58-5.68-53.38-3.79-17.79-10.01-32.07-18.66-42.86v-1.62c0-7.54,3.51-11.32,10.55-11.32,17.85,6.47,34.34,15.77,49.49,27.9,15.13,12.13,27.3,25.75,36.51,40.84,9.19,15.1,13.79,30.73,13.79,46.91,0,18.34-6.08,32.35-18.25,42.05s-24.48,14.56-36.91,14.56Z"/>
</svg>