<?xml version="1.0" encoding="UTF-8"?>
<svg id="_레이어_3" data-name="레이어_3" xmlns="http://www.w3.org/2000/svg" version="1.1" viewBox="0 0 2880 1800">
  <!-- Generator: Adobe Illustrator 29.4.0, SVG Export Plug-In . SVG Version: 2.1.0 Build 152)  -->
  <defs>
    <style>
      .st0 {
        fill: #1e2126;
      }

      .st1 {
        fill: #fff;
      }

      .st2, .st3 {
        fill: none;
      }

      .st4 {
        fill: #1d2025;
      }

      .st5 {
        fill: #11366d;
      }

      .st3 {
        stroke: #11366d;
        stroke-miterlimit: 10;
        stroke-width: 10px;
      }
    </style>
  </defs>
  <g>
    <path class="st0" d="M1305.18,979.07c-7.16,172-17.01,301.64-31.33,402.76,93.98,38.89,156.64,139.15,177.23,319.79h-136.95c.89-11.24.89-21.61.89-31.12,0-97.66-15.22-171.99-51.92-222.99-38.49,203.11-100.25,254.1-194.24,254.1h-72.5v-129.64c14.32,62.23,28.64,103.72,72.5,103.72,40.28,0,68.92-58.77,85.93-297.32h-.89l.89-.86c6.27-99.39,10.74-226.45,13.43-398.44h136.95ZM1456.45,1770.77c21.48-167.67,30.43-392.39,30.43-568.71,0-17.29,0-99.39-4.48-222.99h119.94c1.79,45.81,2.69,94.21,2.69,143.47,0,16.42.89,82.11-5.37,203.11,28.64-9.51,56.39-19.88,81.45-31.11.89-31.98.89-63.09.89-93.34,0-47.54-.89-124.46-4.47-222.12h119.94c.9,40.62,1.79,83.84,1.79,127.92s0,137.42-8.06,276.58c-8.06,139.15-23.27,275.71-44.75,387.21h-94.88c13.43-108.04,22.38-236.82,26.85-371.65h-83.24c-8.06,134.83-23.27,263.61-43.86,371.65h-94.88Z"/>
    <path class="st0" d="M2049.9,1156.25c2.69,40.62,8.95,82.11,16.11,123.59h27.75c155.75,0,351.77-31.11,452.02-95.94v120.14h-240.78c-2.69,33.71-8.06,64.82-16.11,93.34h365.2v136.56c-100.25-64.82-262.26-112.36-416.22-112.36h-8.95c-154.85,0-315.97,47.54-416.22,112.36v-136.56h364.3c2.69-30.25,2.69-59.64-.9-93.34h-213.03c-18.8-50.99-34.01-113.22-41.17-172h491.41c.9-12.96.9-26.79.9-41.49s0-45.81-3.58-87.29h-38.49c-153.96,0-351.77,31.98-452.02,96.8v-121h621.2c2.69,27.66,4.47,55.32,4.47,82.11,0,6.05.9,38.89-6.27,95.07h-489.62ZM2396.3,1769.9c8.06-35.44,14.32-69.14,17.01-103.72,2.69-34.57,2.69-57.04,2.69-64.82,0-14.69-.89-31.11-1.79-47.54h-51.02c-154.85,0-351.77,48.4-452.02,112.36v-136.56h635.52c0,97.67-10.74,157.3-42.07,240.28h-108.31Z"/>
  </g>
  <g>
    <path class="st4" d="M536.35,62.01c-7.16,172-17.01,301.64-31.33,402.76,93.98,38.89,156.64,139.15,177.23,319.79h-136.95c.89-11.24.89-21.61.89-31.11,0-97.67-15.22-172-51.92-222.99-38.49,203.11-100.25,254.1-194.24,254.1h-72.5v-129.64c14.32,62.23,28.64,103.72,72.5,103.72,40.28,0,68.92-58.77,85.93-297.32h-.89l.89-.86c6.27-99.39,10.74-226.45,13.43-398.44h136.95ZM687.62,853.71c21.48-167.67,30.43-392.39,30.43-568.71,0-17.29,0-99.39-4.48-222.99h119.94c1.79,45.81,2.69,94.21,2.69,143.47,0,16.42.89,82.11-5.37,203.11,28.64-9.51,56.39-19.88,81.45-31.11.89-31.98.89-63.09.89-93.34,0-47.54-.89-124.46-4.48-222.12h119.94c.9,40.62,1.79,83.84,1.79,127.92s0,137.42-8.06,276.58c-8.06,139.15-23.27,275.71-44.75,387.21h-94.88c13.43-108.04,22.38-236.82,26.85-371.65h-83.24c-8.06,134.83-23.27,263.61-43.86,371.65h-94.88Z"/>
    <path class="st4" d="M1281.07,239.19c2.69,40.62,8.95,82.11,16.11,123.59h27.75c155.75,0,351.77-31.11,452.02-95.94v120.14h-240.78c-2.69,33.71-8.06,64.82-16.11,93.34h365.2v136.56c-100.25-64.82-262.26-112.36-416.22-112.36h-8.95c-154.85,0-315.97,47.54-416.22,112.36v-136.56h364.3c2.69-30.25,2.69-59.64-.89-93.34h-213.03c-18.8-50.99-34.01-113.22-41.17-172h491.41c.9-12.96.9-26.79.9-41.49s0-45.81-3.58-87.29h-38.49c-153.96,0-351.77,31.98-452.02,96.8V62.01h621.2c2.69,27.66,4.47,55.32,4.47,82.11,0,6.05.9,38.89-6.26,95.07h-489.62ZM1627.47,852.84c8.06-35.44,14.32-69.14,17.01-103.72s2.69-57.04,2.69-64.82c0-14.69-.9-31.12-1.79-47.54h-51.02c-154.85,0-351.77,48.4-452.02,112.36v-136.56h635.52c0,97.67-10.74,157.3-42.07,240.28h-108.31Z"/>
  </g>
  <g>
    <path class="st5" d="M1998.91,194.05h540.16v418.1l-92.6-20.43-1.4-321.41-370.39,4.09v306.43s-16.6,2.24-37.88,19.07c-20.53,16.22-37.88,36.77-37.88,36.77V194.05Z"/>
    <path class="st5" d="M2540.81,599.48c28.7,36.32,8.85,97.87-44.34,137.47-53.19,39.6-119.57,42.26-148.27,5.94-28.7-36.32-8.85-97.87,44.34-137.47,53.19-39.6,119.57-42.26,148.27-5.94Z"/>
    <path class="st5" d="M2037.94,600.23c44.91,24.14,101.97,183.03-26.17,236.59-22.4,9.37-38.52-42.56-39.28-111.68-.33-29.28,3.27-83.95,32.27-103.92-1.86-5.86,8.22-17,8.87-18.41,3.57-7.77,10.41-6.15,24.32-2.59Z"/>
    <path class="st5" d="M2443.26,199.89c-2.69-7,.23-17.35,6.08-38.03,3.66-12.95,7.79-27.21,17.3-44.59,14.18-25.89,31.07-41.76,35.54-45.85,14.81-13.53,28.06-20.85,38.82-26.78,21.49-11.86,33.62-14.18,38.82-14.98,11.98-1.84,22.92,0,22.92,0,0,0,4.03,11.34,5.14,24.51,2.12,25.1,2.31,46.65-2.81,64.46-10.14,35.25-17.47,52.93-23.38,61.51-6.49,9.42-21.23,34.18-53.21,42.9-33.33,9.09-76.68-.95-85.22-23.15Z"/>
    <g>
      <path class="st1" d="M2481.86,145.32c6,6.19,11.42,10.86,15.46,14.12,6.49,5.22,9.79,7.06,11.23,7.83,5.6,3,10.36,4.34,13.56,5.22,4.22,1.16,10.07,2.39,17.19,2.71-6.05.78-12.14,1.49-18.24,2.43-5.85.9-12,1.86-20.07,2.82-5.77-9.7-15.05-27.59-19.13-35.13Z"/>
      <path class="st1" d="M2512.42,108.4c11.54,10.36,17.38,13.18,19.95,12.62.56-.12.7,1.25,2.54,2.38,1.42.87,3.85,0,3.56-.27,3.07,2.78,3.47,4.58,22,9.24-4.9.53-9.83,1-14.77,1.65-4.73.62-9.7,1.29-16.25,1.93-5.1-7.61-13.4-21.64-17.03-27.55Z"/>
      <path class="st1" d="M2541.97,72.25c3.55,3.63,6.74,6.46,9.2,8.51,4.42,3.69,6.35,4.76,7.54,5.36,1.5.75,3.11,1.4,8.33,2.81,3.02.81,7.06,1.84,11.94,2.86-4.11.84-8.25,1.64-12.39,2.59-3.97.92-8.16,1.9-13.63,2.96-3.36-6.91-8.65-19.72-10.99-25.1Z"/>
    </g>
    <line class="st2" x1="2577.63" y1="70.33" x2="2490.99" y2="206.52"/>
    <path class="st1" d="M2490.1,198.42c-1.43-.55,1.29-13.05,7.37-24.85,1.09-2.11,2.27-4.18,8.07-12.94,5.95-8.99,8.93-13.49,14.21-20.94,10.03-14.15,18.47-26.94,26.31-38.81,4.46-6.76,13.56-20.67,27.18-37.79,3.5-4.4,5.3-6.5,5.61-6.3.86.55-10.21,17.8-35.25,58.9-2.24,3.68-4.32,7.09-7.37,11.91-4.92,7.77-8.25,12.68-19.29,29.12-6.31,9.39-9.46,14.08-9.82,14.64-12.23,18.94-15.79,27.54-17.01,27.07Z"/>
    <rect class="st5" x="2047.58" y="307.77" width="372.69" height="50.84"/>
    <rect class="st5" x="2335.63" y="307.77" width="163.22" height="50.84"/>
  </g>
  <path class="st3" d="M1296.14,984.7c345.92-206.86,386.67-200.4,404.29-177.3,28.29,37.08-80.52,111.97-40.6,171.67,27.72,41.45,139.13,31.96,200.42,7.23,127.83-51.57,129.04-111.34,151.18-155.74"/>
</svg>